<?xml version="1.0" encoding="UTF-8"?>
<svg version="1.1" xmlns="http://www.w3.org/2000/svg" width="1080" height="1080">
<path d="M0 0 C0.74577301 0.00432037 1.49154602 0.00864075 2.25991821 0.01309204 C36.47959936 0.24428454 69.73688743 5.97318261 100 22.375 C100.93585938 22.87902344 101.87171875 23.38304687 102.8359375 23.90234375 C131.068845 39.97817909 149.53006862 68.55405704 158 99.375 C167.08581452 133.12132701 167.10237553 167.43406299 167.02734375 202.1171875 C167.02348978 203.92982118 167.02348978 203.92982118 167.01955795 205.77907372 C166.99303638 217.1707947 166.95407072 228.56246024 166.90405273 239.95410156 C166.87697792 246.2445548 166.8601343 252.53497287 166.84918404 258.82547379 C166.84307069 261.18448324 166.8331924 263.54348669 166.81910515 265.90246201 C166.28868159 312.18517378 166.28868159 312.18517378 186.76953125 352.33984375 C197.69866158 362.85481757 213.74224999 366.54856222 228.36987305 368.30883789 C243.51667205 370.17392344 256.79051709 375.57658491 266.81640625 387.54296875 C275.74875461 399.36916647 279.93227063 411.29198005 278.39746094 426.02197266 C277.27098779 432.69085976 274.29699641 438.53965279 271 444.375 C270.24203125 445.79232422 270.24203125 445.79232422 269.46875 447.23828125 C263.42100739 457.15843048 252.43527043 464.47936381 241.375 467.65625 C236.40148959 468.71542351 231.38950885 469.4386786 226.35864258 470.16845703 C208.07779205 472.91792013 191.89937068 478.45395353 180.28515625 493.61328125 C165.31033814 516.28507965 166.83316387 547.62243027 166.95540047 573.52786446 C166.9730663 577.40643319 166.98317817 581.28495914 166.99131775 585.16355896 C167.01367781 595.49427049 167.04518028 605.82494578 167.08751303 616.15559524 C167.65018238 753.77761247 167.65018238 753.77761247 125 797.375 C92.87783202 829.19786314 47.21654118 836.72910358 3.8125 838.3125 C3.10347534 838.34268219 2.39445068 838.37286438 1.66394043 838.40396118 C-12.93890399 838.9867048 -25.5531568 836.84593282 -37.0625 827.5 C-44.60780983 820.49031401 -49.50045733 810.70482801 -50.203125 800.39453125 C-50.39577146 787.21430282 -46.78428721 776.36282835 -38 766.375 C-35.30078125 764.2421875 -35.30078125 764.2421875 -32.3125 762.25 C-30.85263672 761.25613281 -30.85263672 761.25613281 -29.36328125 760.2421875 C-22.05970605 756.18747327 -15.46294112 754.98502486 -7.1875 754.875 C8.83727714 754.35577097 24.03490077 752.30492057 39 746.375 C39.763125 746.07980469 40.52625 745.78460937 41.3125 745.48046875 C53.97262983 739.89061304 62.95485732 729.29358593 67.94140625 716.640625 C68.57792829 714.89002651 69.20164054 713.13471762 69.8125 711.375 C70.09061523 710.58834961 70.36873047 709.80169922 70.65527344 708.99121094 C77.1877932 688.69345466 76.44848735 667.37373025 76.44024777 646.32617116 C76.442215 641.90510219 76.46265122 637.48411902 76.48143005 633.06309509 C76.52209816 622.80336727 76.54092789 612.54365691 76.55760193 602.28386688 C76.58006614 589.22946506 76.61397461 576.17511294 76.66480106 563.12079042 C76.68127394 558.74243333 76.69340232 554.36415513 76.69503975 549.98576546 C76.71046656 510.21654919 77.6408392 473.66664618 107 443.375 C119.58870208 432.23034607 134.49998482 425.37984849 150 419.375 C149.22398437 419.02308594 148.44796875 418.67117188 147.6484375 418.30859375 C144.09028151 416.6823721 140.54130614 415.03752507 137 413.375 C136.39655762 413.09172852 135.79311523 412.80845703 135.17138672 412.51660156 C111.89861287 401.495646 93.40961445 384.58201771 84.15478516 360.14306641 C77.79870903 341.60553161 76.85556291 322.67399522 76.84228516 303.21606445 C76.83760226 301.64878705 76.83245634 300.08151097 76.82688904 298.51423645 C76.81571081 295.16741886 76.80722794 291.82060964 76.80076981 288.47377968 C76.78996703 283.16202739 76.76969176 277.85033605 76.74765015 272.53862 C76.68613268 257.44349978 76.63180925 242.34838509 76.59863281 227.25317383 C76.58018256 218.89426721 76.55112397 210.53546507 76.5106281 202.17663544 C76.48974313 197.77029646 76.47412739 193.36408797 76.47182083 188.95769691 C76.84487784 142.4732068 76.84487784 142.4732068 55.40625 102.625 C37.92645649 86.28025802 13.64700206 84.14635511 -9.23071289 83.23364258 C-22.49022352 82.56738805 -31.36362766 78.01137234 -40.6875 68.6875 C-48.59675307 58.49090197 -50.80848954 47.97273709 -50 35.375 C-47.85541833 23.47003875 -41.53167088 14.20939293 -32.05859375 6.87109375 C-22.1712402 0.17965246 -11.57373545 -0.12658096 0 0 Z " fill="#666666" transform="translate(784,120.625)"/>
<path d="M0 0 C1.53368295 -0.01656456 3.06728855 -0.04386193 4.60058594 -0.08203125 C18.45280477 -0.42270815 29.88880155 1.75580745 40.77441406 11.10400391 C44.2918923 14.76804374 46.64382908 18.84457839 48.93066406 23.35009766 C49.52878906 24.44322266 50.12691406 25.53634766 50.74316406 26.66259766 C54.63380606 35.46773482 54.13898363 47.03024394 50.95800781 55.98681641 C45.62760904 68.24876035 37.71150712 76.34188748 25.24902344 81.31713867 C19.71178212 83.04080465 14.2569857 83.22119558 8.49316406 83.41259766 C-7.79853636 84.27965992 -24.37602243 85.66848694 -39.06933594 93.35009766 C-39.95878906 93.81416016 -40.84824219 94.27822266 -41.76464844 94.75634766 C-54.9760677 102.17051727 -61.93951926 113.19699694 -66.81933594 127.28759766 C-67.10099609 128.0779541 -67.38265625 128.86831055 -67.67285156 129.68261719 C-74.31844167 150.04365847 -73.5177963 171.49954233 -73.50958371 192.63378716 C-73.51155042 197.08602025 -73.53198448 201.53816808 -73.55076599 205.99035645 C-73.59143531 216.32129714 -73.61026613 226.65222048 -73.62693787 236.98322296 C-73.64940259 250.13197896 -73.68327634 263.28068562 -73.734137 276.42936277 C-73.75062107 280.839546 -73.76273976 285.24965071 -73.76437569 289.65986633 C-73.7825063 337.00769148 -73.7825063 337.00769148 -80.06933594 356.35009766 C-80.42898437 357.45740234 -80.78863281 358.56470703 -81.15917969 359.70556641 C-85.63731677 372.32577092 -92.63378154 382.89821877 -102.06933594 392.35009766 C-102.73191406 393.02427734 -103.39449219 393.69845703 -104.07714844 394.39306641 C-114.26307295 404.09486904 -126.83462047 410.67017887 -139.74121094 415.97509766 C-142.25378724 417.01315735 -144.66577817 418.08762287 -147.06933594 419.35009766 C-146.38871094 419.61822266 -145.70808594 419.88634766 -145.00683594 420.16259766 C-131.23064268 425.73169706 -118.58458632 431.83530683 -107.06933594 441.35009766 C-105.85310547 442.32076172 -105.85310547 442.32076172 -104.61230469 443.31103516 C-86.28604754 458.60893295 -76.99702549 483.09022568 -74.78288841 506.36063957 C-74.09478864 515.44158616 -73.91779815 524.48359652 -73.91162109 533.58496094 C-73.90693826 535.16046791 -73.90179235 536.73597356 -73.89622498 538.31147766 C-73.88504565 541.67629999 -73.87656325 545.041114 -73.87010574 548.40594864 C-73.85930219 553.74737972 -73.83902631 559.08875021 -73.81698608 564.43014526 C-73.75547255 579.60981456 -73.70115966 594.7894785 -73.66796875 609.96923828 C-73.6495111 618.37466585 -73.62044275 626.77998966 -73.57996404 635.18534076 C-73.55908962 639.6157447 -73.5434649 644.0460191 -73.54115677 648.47647476 C-73.77630792 680.43912516 -73.77630792 680.43912516 -66.81933594 711.47509766 C-66.3680835 712.78716187 -66.3680835 712.78716187 -65.90771484 714.12573242 C-63.56032431 720.64660042 -60.62668044 726.08653028 -56.06933594 731.35009766 C-55.65039062 731.91341797 -55.23144531 732.47673828 -54.79980469 733.05712891 C-44.36255863 746.845464 -25.33106986 751.08668715 -9.06933594 753.35009766 C-7.80992187 753.53185547 -6.55050781 753.71361328 -5.25292969 753.90087891 C-1.32198046 754.38392734 2.58572353 754.49399374 6.54248047 754.58862305 C20.7511435 754.97781351 31.08817237 757.5641427 41.93066406 767.35009766 C44.31133528 770.1802317 46.17111803 773.10345143 47.93066406 776.35009766 C48.33027344 777.06681641 48.72988281 777.78353516 49.14160156 778.52197266 C53.98361974 787.65656015 54.49250905 798.62716127 51.80566406 808.60009766 C47.91616708 819.55163064 41.22676246 828.11593529 31.11035156 833.98681641 C4.56673289 846.33844696 -38.05578097 836.97330669 -65.06933594 829.35009766 C-65.7605957 829.15689941 -66.45185547 828.96370117 -67.1640625 828.76464844 C-99.01961958 819.62369397 -125.78239375 799.21016232 -142.06933594 770.35009766 C-150.76149997 754.46166415 -155.63045427 737.88240465 -159.31933594 720.22509766 C-159.47055908 719.51168213 -159.62178223 718.7982666 -159.77758789 718.06323242 C-163.43421347 699.28044142 -163.38011635 680.32116748 -163.40818977 661.27224708 C-163.41651936 657.38416288 -163.43745757 653.49614752 -163.45739746 649.60810852 C-163.50592738 639.75130427 -163.53851178 629.89447079 -163.56933594 620.03759766 C-163.60263333 609.39802547 -163.63896736 598.75850873 -163.69346666 588.11902076 C-163.71272169 584.27215026 -163.72812614 580.42535225 -163.73381042 576.5784359 C-162.50413489 528.49120048 -162.50413489 528.49120048 -183.00683594 486.78759766 C-196.90276825 474.0565938 -214.72575289 470.86998793 -232.94433594 468.41259766 C-238.54914617 467.56982057 -243.12787555 466.11365513 -248.06933594 463.35009766 C-249.17535156 462.73521484 -249.17535156 462.73521484 -250.30371094 462.10791016 C-261.71572193 455.14264827 -270.07788244 443.88141346 -273.73730469 430.99853516 C-275.72379807 415.1533291 -274.01817084 401.2521147 -264.06933594 388.35009766 C-263.59109375 387.67333984 -263.11285156 386.99658203 -262.62011719 386.29931641 C-252.4428056 373.09701044 -236.29834486 369.75792621 -220.75341797 367.61230469 C-212.77129674 366.4434994 -205.57295858 364.3140286 -198.06933594 361.35009766 C-197.30621094 361.06650391 -196.54308594 360.78291016 -195.75683594 360.49072266 C-185.84810029 356.25553726 -177.24582008 347.17640292 -173.06933594 337.35009766 C-165.66767457 316.96018516 -163.92982795 296.56258306 -163.91162109 275.0246582 C-163.90693352 273.66563255 -163.9017869 272.30660842 -163.89622498 270.94758606 C-163.88507494 268.05206645 -163.87657873 265.15655633 -163.87010574 262.26102257 C-163.85925283 257.65296691 -163.83896367 253.04498029 -163.81698608 248.43696594 C-163.75564064 235.34350796 -163.70128385 222.25005591 -163.66796875 209.15649414 C-163.64942823 201.90060187 -163.62025843 194.64482797 -163.57996404 187.38902313 C-163.55921843 183.57212664 -163.54348426 179.75537701 -163.54115677 175.93842125 C-163.52339206 153.23869309 -163.0233329 130.32089289 -157.25683594 108.22509766 C-156.99821777 107.19779541 -156.73959961 106.17049316 -156.47314453 105.11206055 C-149.93827532 79.90472283 -138.37859605 57.99365606 -120.06933594 39.35009766 C-119.27527344 38.50833984 -118.48121094 37.66658203 -117.66308594 36.79931641 C-88.04055993 7.41114582 -39.7355982 0.3126791 0 0 Z " fill="#666666" transform="translate(293.0693359375,120.64990234375)"/>
<path d="M0 0 C1.03794708 -0.0033284 2.07589417 -0.0066568 3.14529419 -0.01008606 C5.33562783 -0.01513651 7.52596913 -0.01749497 9.71630859 -0.01733398 C13.05188785 -0.01951918 16.38713548 -0.0376916 19.72265625 -0.05664062 C21.85676971 -0.05957526 23.99088473 -0.06155959 26.125 -0.0625 C27.60974319 -0.07327827 27.60974319 -0.07327827 29.1244812 -0.08427429 C42.21440087 -0.04147755 54.05628906 4.45705092 65.1953125 11.16796875 C65.1953125 11.82796875 65.1953125 12.48796875 65.1953125 13.16796875 C65.90042969 13.24144531 66.60554688 13.31492188 67.33203125 13.390625 C71.01011678 14.38917755 73.09432032 16.16780796 76.0078125 18.60546875 C77.47154297 19.81009766 77.47154297 19.81009766 78.96484375 21.0390625 C79.70089844 21.74160156 80.43695312 22.44414062 81.1953125 23.16796875 C81.1953125 23.82796875 81.1953125 24.48796875 81.1953125 25.16796875 C81.7934375 25.43609375 82.3915625 25.70421875 83.0078125 25.98046875 C85.19379104 27.16714281 86.60863844 28.26395988 88.1953125 30.16796875 C88.1953125 30.82796875 88.1953125 31.48796875 88.1953125 32.16796875 C88.8553125 32.16796875 89.5153125 32.16796875 90.1953125 32.16796875 C90.1953125 32.82796875 90.1953125 33.48796875 90.1953125 34.16796875 C90.76787403 34.41576836 91.34043556 34.66356796 91.93034744 34.91887665 C94.55143022 36.36436199 96.31664912 38.0375369 98.43475342 40.15344238 C99.69250328 41.40273277 99.69250328 41.40273277 100.97566223 42.67726135 C101.88700424 43.59265182 102.79834625 44.5080423 103.73730469 45.45117188 C104.71283779 46.42399419 105.6887957 47.39639067 106.66514587 48.36839294 C109.31208254 51.00621628 111.95265916 53.65032152 114.5918684 56.29587364 C117.35287004 59.06193783 120.11874683 61.82312018 122.8838501 64.58508301 C127.52431641 69.22191164 132.16055135 73.86293979 136.79443359 78.50634766 C142.15756063 83.88037168 147.52787214 89.24713535 152.90194774 94.61020899 C157.51289007 99.21208809 162.11993936 103.81783734 166.72373128 108.42686987 C169.4748124 111.18107436 172.22723965 113.933897 174.98317719 116.6832428 C177.57156173 119.26586806 180.15503916 121.85330207 182.73474312 124.44459724 C184.13884947 125.8526271 185.54790856 127.25571251 186.95707703 128.65867615 C187.78429764 129.49153641 188.61151825 130.32439667 189.46380615 131.18249512 C190.18867092 131.90811394 190.91353569 132.63373276 191.66036606 133.38134003 C193.1953125 135.16796875 193.1953125 135.16796875 193.1953125 137.16796875 C193.7934375 137.43609375 194.3915625 137.70421875 195.0078125 137.98046875 C197.19379104 139.16714281 198.60863844 140.26395988 200.1953125 142.16796875 C200.1953125 142.82796875 200.1953125 143.48796875 200.1953125 144.16796875 C200.8553125 144.16796875 201.5153125 144.16796875 202.1953125 144.16796875 C202.1953125 144.82796875 202.1953125 145.48796875 202.1953125 146.16796875 C202.7934375 146.43609375 203.3915625 146.70421875 204.0078125 146.98046875 C206.19379104 148.16714281 207.60863844 149.26395988 209.1953125 151.16796875 C209.1953125 151.82796875 209.1953125 152.48796875 209.1953125 153.16796875 C209.8553125 153.16796875 210.5153125 153.16796875 211.1953125 153.16796875 C211.1953125 153.82796875 211.1953125 154.48796875 211.1953125 155.16796875 C211.7934375 155.43609375 212.3915625 155.70421875 213.0078125 155.98046875 C215.19379104 157.16714281 216.60863844 158.26395988 218.1953125 160.16796875 C218.1953125 160.82796875 218.1953125 161.48796875 218.1953125 162.16796875 C218.7934375 162.43609375 219.3915625 162.70421875 220.0078125 162.98046875 C222.19379104 164.16714281 223.60863844 165.26395988 225.1953125 167.16796875 C225.1953125 167.82796875 225.1953125 168.48796875 225.1953125 169.16796875 C225.8553125 169.16796875 226.5153125 169.16796875 227.1953125 169.16796875 C227.1953125 169.82796875 227.1953125 170.48796875 227.1953125 171.16796875 C227.7934375 171.43609375 228.3915625 171.70421875 229.0078125 171.98046875 C231.19379104 173.16714281 232.60863844 174.26395988 234.1953125 176.16796875 C234.1953125 176.82796875 234.1953125 177.48796875 234.1953125 178.16796875 C234.8553125 178.16796875 235.5153125 178.16796875 236.1953125 178.16796875 C236.1953125 178.82796875 236.1953125 179.48796875 236.1953125 180.16796875 C236.7934375 180.43609375 237.3915625 180.70421875 238.0078125 180.98046875 C240.19379104 182.16714281 241.60863844 183.26395988 243.1953125 185.16796875 C243.1953125 185.82796875 243.1953125 186.48796875 243.1953125 187.16796875 C243.8553125 187.16796875 244.5153125 187.16796875 245.1953125 187.16796875 C245.1953125 187.82796875 245.1953125 188.48796875 245.1953125 189.16796875 C246.09636719 189.55662109 246.09636719 189.55662109 247.015625 189.953125 C250.84697188 192.08851726 252.77656319 195.60108118 255.1953125 199.16796875 C255.72116943 199.9364917 256.24702637 200.70501465 256.78881836 201.49682617 C261.6170318 209.3225397 262.07896078 215.98365528 261.8828125 225.04296875 C261.90504883 226.95142578 261.90504883 226.95142578 261.92773438 228.8984375 C261.83813161 239.21856816 260.04829682 249.17203825 253.07421875 257.17578125 C251.9892824 258.2362647 250.88385472 259.27623823 249.7578125 260.29296875 C249.21060547 260.82921875 248.66339844 261.36546875 248.09960938 261.91796875 C244.06827435 265.75370054 239.99467694 269.16796875 234.1953125 269.16796875 C233.8653125 270.15796875 233.5353125 271.14796875 233.1953125 272.16796875 C228.34137584 275.48142616 222.14159691 274.61813981 216.5078125 274.66796875 C214.78788086 274.72984375 214.78788086 274.72984375 213.03320312 274.79296875 C204.84725861 274.86794019 200.53232769 273.19697912 194.1953125 268.16796875 C192.42660655 267.22761453 190.63934446 266.31934271 188.8203125 265.48046875 C185.74071972 264.05799018 183.36490751 262.82047362 181.1953125 260.16796875 C181.1953125 259.50796875 181.1953125 258.84796875 181.1953125 258.16796875 C179.8753125 257.50796875 178.5553125 256.84796875 177.1953125 256.16796875 C177.1953125 255.50796875 177.1953125 254.84796875 177.1953125 254.16796875 C176.61394531 253.91273438 176.03257812 253.6575 175.43359375 253.39453125 C172.96715769 252.04294151 171.34688396 250.55104181 169.3828125 248.54296875 C168.75761719 247.91132813 168.13242187 247.2796875 167.48828125 246.62890625 C165.5944004 244.59629137 163.77671948 242.53039642 161.96484375 240.42578125 C158.0785229 235.96038146 153.9169781 231.8141126 149.6953125 227.66796875 C144.91650448 222.97464925 140.32376156 218.22804897 135.95507812 213.15039062 C132.86137244 209.66525048 129.52094772 206.42989449 126.1953125 203.16796875 C122.23663877 199.28513168 118.34472912 195.40456213 114.7265625 191.19921875 C110.93389202 186.79593693 106.83958044 182.73809951 102.6953125 178.66796875 C97.92673476 173.98469651 93.34555284 169.24830523 88.98632812 164.18164062 C85.7234025 160.51307321 82.19682538 157.10684276 78.6953125 153.66796875 C73.89604024 148.95455109 69.28017599 144.18753294 64.89257812 139.08789062 C62.13629071 135.9700189 59.16799509 133.07763936 56.1953125 130.16796875 C52.43706025 126.45757032 48.73425786 122.76584656 45.3203125 118.73046875 C38.02589021 110.21116854 31.34383562 105.73315549 20.1953125 104.16796875 C10.48317029 103.5565506 -0.21693366 103.19317478 -8.45703125 109.0546875 C-11.03027291 111.32659423 -13.42326906 113.69646376 -15.8046875 116.16796875 C-16.5884375 116.92980469 -17.3721875 117.69164062 -18.1796875 118.4765625 C-21.6256899 121.83525065 -24.90385953 125.26774922 -28.04296875 128.9140625 C-32.59367051 134.14837484 -37.54275577 138.95544546 -42.48828125 143.8125 C-45.88387311 147.17124999 -49.18886519 150.54649299 -52.3046875 154.16796875 C-56.74904002 159.33357619 -61.62975838 164.04089168 -66.48828125 168.8125 C-70.5229124 172.80335577 -74.34440488 176.88448884 -78.04492188 181.18554688 C-81.76860659 185.38037482 -85.84124289 189.24213802 -89.84375 193.16796875 C-93.11134052 196.39771073 -96.27621083 199.653085 -99.2734375 203.13671875 C-103.73029355 208.31111852 -108.6191514 213.03047444 -113.48828125 217.8125 C-116.88387311 221.17124999 -120.18886519 224.54649299 -123.3046875 228.16796875 C-127.74904002 233.33357619 -132.62975838 238.04089168 -137.48828125 242.8125 C-141.58383287 246.86361526 -145.46875721 251.01255806 -149.23803711 255.36791992 C-153.20682378 259.92797355 -156.87166434 263.04053022 -162.2421875 265.85546875 C-163.33402344 266.43683594 -164.42585938 267.01820313 -165.55078125 267.6171875 C-168.59765676 269.06929984 -171.59028386 270.15508472 -174.8046875 271.16796875 C-175.4646875 271.49796875 -176.1246875 271.82796875 -176.8046875 272.16796875 C-180.94558863 272.41107049 -185.0949512 272.35316856 -189.2421875 272.35546875 C-190.40041016 272.36771484 -191.55863281 272.37996094 -192.75195312 272.39257812 C-193.86119141 272.39451172 -194.97042969 272.39644531 -196.11328125 272.3984375 C-197.13220459 272.40254639 -198.15112793 272.40665527 -199.20092773 272.41088867 C-201.8046875 272.16796875 -201.8046875 272.16796875 -204.8046875 270.16796875 C-206.23025581 269.67377174 -207.66949847 269.21802425 -209.1171875 268.79296875 C-218.54439251 265.73714865 -225.5941271 258.848191 -230.4296875 250.29296875 C-234.04552726 242.07515112 -234.26735207 234.38925605 -234.3671875 225.54296875 C-234.44163086 223.60744141 -234.44163086 223.60744141 -234.51757812 221.6328125 C-234.66016882 208.14780651 -229.53462822 199.73384145 -220.56278992 190.30358887 C-219.95246562 189.65634653 -219.34214132 189.00910419 -218.71332234 188.34224844 C-211.38359388 180.60769767 -203.86295077 173.06243722 -196.33520508 165.52148438 C-194.73506788 163.91506263 -193.13511299 162.30845929 -191.5353241 160.70169067 C-186.34345107 155.48904285 -181.14648573 150.28148761 -175.94921875 145.07421875 C-174.14840854 143.26935352 -172.34762941 141.46445726 -170.54688072 139.65953064 C-163.05852091 132.15435431 -155.56907499 124.65026551 -148.07594776 117.14984894 C-146.14542997 115.21742211 -144.21491792 113.28498956 -142.28442383 111.35253906 C-141.80476544 110.87239694 -141.32510706 110.39225481 -140.83091357 109.89756292 C-133.04019425 102.09852125 -125.25805047 94.29098018 -117.47938422 86.47991878 C-109.45766668 78.42507048 -101.42822163 70.37800216 -93.3916809 62.33793783 C-88.89350217 57.83741469 -84.39865452 53.33368212 -79.91193581 48.82173157 C-75.69758461 44.58405441 -71.47375594 40.35605623 -67.24260139 36.13515854 C-65.69725774 34.59030892 -64.15529666 33.0420666 -62.61709976 31.49010086 C-54.81482282 23.6219323 -47.52991178 16.60497392 -37.8046875 11.16796875 C-36.44288017 10.26269203 -35.08722998 9.3479719 -33.7421875 8.41796875 C-30.03225705 6.08009936 -26.23408214 4.92619689 -22.00390625 3.84375 C-19.54932003 3.2041605 -19.54932003 3.2041605 -16.8046875 1.16796875 C-11.2822936 -0.18284422 -5.6502901 0.00632651 0 0 Z " fill="#666666" transform="translate(526.8046875,173.83203125)"/>
<path d="M0 0 C7.75704852 5.97563331 14.31939883 12.74593849 15.74809003 22.82820761 C15.89382311 25.79629214 15.91792008 28.74123319 15.89639282 31.71284485 C15.90786946 33.40839541 15.90786946 33.40839541 15.91957796 35.13819951 C15.94014828 38.9104397 15.9322711 42.68206594 15.92431641 46.4543457 C15.93083037 49.16525014 15.94325374 51.87612085 15.95529175 54.58700562 C15.98073669 61.17721396 15.98437926 67.76725914 15.97969122 74.35750834 C15.97611879 79.71714441 15.97963716 85.07673113 15.98814011 90.43636131 C15.98992567 91.58249778 15.98992567 91.58249778 15.99174731 92.75178852 C15.99417093 94.30427495 15.9965992 95.85676137 15.99903207 97.40924778 C16.02076459 111.95539387 16.01646707 126.50144715 16.00426237 141.04759844 C15.99392765 154.33744827 16.01642833 167.62700474 16.05445881 180.91679654 C16.09325999 194.58127709 16.10971974 208.24561902 16.10221231 221.910155 C16.09839465 229.5743244 16.10330047 237.23824424 16.13164139 244.90236855 C16.15552805 251.42769377 16.15821377 257.95261584 16.13406105 264.47794691 C16.12232289 267.803389 16.12325481 271.12749424 16.14406586 274.45298195 C16.30237441 301.72270645 16.30237441 301.72270645 7.13059425 311.61636829 C-1.21071322 319.75546509 -9.38157848 322.47137416 -20.84448242 322.43969727 C-30.81787955 322.25551745 -38.13577729 318.76748753 -45.625 312.1953125 C-53.16547012 303.51426706 -55.07875553 294.12089437 -55.01268005 282.89883423 C-55.01806559 281.79226294 -55.02345113 280.68569165 -55.02899987 279.5455879 C-55.0432568 275.85400782 -55.03618107 272.16278746 -55.02905273 268.47119141 C-55.03475749 265.81778334 -55.04162202 263.16440071 -55.04985046 260.51100159 C-55.06700841 254.06151292 -55.06788471 247.61212182 -55.06263756 241.16261627 C-55.05858885 235.91787321 -55.06004773 230.6731589 -55.06538582 225.42841721 C-55.06613424 224.68068967 -55.06688266 223.93296214 -55.06765376 223.16257619 C-55.06918531 221.64334603 -55.07072366 220.12411588 -55.07226873 218.60488574 C-55.08598302 204.3716222 -55.08056373 190.13841369 -55.06908352 175.90515141 C-55.05915328 162.89921556 -55.07209006 149.89342201 -55.09601771 136.88750811 C-55.12043211 123.51571854 -55.13001077 110.14399518 -55.12336498 96.77218378 C-55.11987783 89.27186404 -55.12207142 81.77165369 -55.13961601 74.27135086 C-55.15436737 67.88623574 -55.15493537 61.50130704 -55.1375451 55.11619546 C-55.12905643 51.8620569 -55.12901715 48.60831792 -55.14219666 45.3541851 C-55.15542331 41.81773124 -55.14384272 38.28217388 -55.12620544 34.74575806 C-55.13581045 33.7294914 -55.14541546 32.71322475 -55.15531152 31.66616213 C-55.05818108 22.16171896 -52.47835618 12.1489617 -45.625 5.1953125 C-32.98649748 -5.44763699 -14.52716635 -9.98742687 0 0 Z " fill="#666666" transform="translate(462.625,450.8046875)"/>
<path d="M0 0 C6.58965865 5.29659356 11.30684724 12.34034634 13.0703125 20.6640625 C13.16174118 22.23092736 13.20285636 23.80113515 13.20732689 25.37065887 C13.21240143 26.31870628 13.21747597 27.26675368 13.22270429 28.2435298 C13.22320205 29.28203093 13.22369981 30.32053206 13.22421265 31.39050293 C13.23078603 33.04901866 13.23078603 33.04901866 13.2374922 34.74103975 C13.25088555 38.459523 13.25706033 42.17798255 13.26318359 45.89648438 C13.27108421 48.55737487 13.2793482 51.21826232 13.28796387 53.87915039 C13.31247147 61.87463665 13.32711359 69.8701291 13.34002393 77.86564136 C13.34373738 80.12513249 13.3477105 82.38462301 13.3517766 84.64411354 C13.37701709 98.68407962 13.39906385 112.7240467 13.41150475 126.76403046 C13.41443431 130.01521305 13.41739599 133.26639561 13.42041016 136.51757812 C13.42115621 137.32561561 13.42190226 138.1336531 13.42267092 138.96617657 C13.4353155 152.04613165 13.46852725 165.12595051 13.51021199 178.20584196 C13.55268667 191.6441349 13.57620624 205.08235822 13.58142531 218.5207181 C13.5848334 226.06199568 13.59651705 233.60306049 13.62952805 241.14427185 C13.65760608 247.5690085 13.66849416 253.99348874 13.65733258 260.41828197 C13.6521653 263.69286091 13.65766366 266.96679418 13.67979813 270.24131775 C13.70254999 273.80190541 13.69416488 277.36115692 13.67831421 280.92175293 C13.69913734 282.45273597 13.69913734 282.45273597 13.72038114 284.01464796 C13.62578732 292.68409062 11.08819274 301.02931349 5.8203125 308.0390625 C-3.2295136 316.67753287 -12.15587941 320.20098564 -24.57250977 320.0793457 C-34.81617665 319.71458272 -41.31358239 316.17268624 -48.7265625 309.109375 C-54.08896019 303.15749387 -57.04659679 296.92364698 -57.06390858 288.90502739 C-57.06836642 287.9452964 -57.07282426 286.98556541 -57.07741719 285.99675167 C-57.07723283 284.94521345 -57.07704847 283.89367523 -57.07685852 282.81027222 C-57.08053521 281.69093328 -57.0842119 280.57159434 -57.088 279.41833603 C-57.09904558 275.65372333 -57.10288218 271.88913821 -57.10668945 268.12451172 C-57.11295344 265.43082006 -57.11958737 262.73713136 -57.12660217 260.04344177 C-57.14635346 251.95007449 -57.15643119 243.85670598 -57.16532996 235.76332062 C-57.16971513 231.95017521 -57.17508136 228.13703119 -57.18031883 224.32388687 C-57.19732993 211.64493282 -57.21182349 198.96597963 -57.21906757 186.28701591 C-57.22097741 182.99765904 -57.22289775 179.70830216 -57.22485352 176.41894531 C-57.22533726 175.60141136 -57.225821 174.78387741 -57.2263194 173.9415697 C-57.23461743 160.70185691 -57.25995104 147.46223454 -57.29243419 134.22256123 C-57.32552579 120.62381526 -57.34351824 107.02511521 -57.34671181 93.42632878 C-57.34887499 85.79348907 -57.35759535 78.16078122 -57.38317299 70.5279808 C-57.40490875 64.02672028 -57.41291634 57.52562364 -57.40320621 51.0243309 C-57.39866962 47.70952398 -57.40270323 44.39532837 -57.41996765 41.08052254 C-57.43766885 37.47998258 -57.43058788 33.88029539 -57.41743469 30.27975464 C-57.42840394 29.24160075 -57.43937318 28.20344686 -57.45067483 27.13383377 C-57.36581234 17.48763927 -54.66727584 9.56882353 -47.984375 2.484375 C-33.82051685 -10.06383393 -15.2632561 -10.79596163 0 0 Z " fill="#666666" transform="translate(657.9296875,498.3359375)"/>
<path d="M0 0 C6.65425059 4.57479728 12.47770129 9.57653886 16.1875 16.875 C16.51105469 17.49117188 16.83460938 18.10734375 17.16796875 18.7421875 C19.52860397 25.1480427 19.14408097 32.11583134 19.13371277 38.84164429 C19.13597833 39.92341654 19.13824388 41.0051888 19.14057809 42.11974204 C19.14690068 45.73918137 19.14608984 49.3585831 19.14526367 52.97802734 C19.14825622 55.57526193 19.15165897 58.17249606 19.15544128 60.76972961 C19.1637338 67.08912048 19.16649548 73.40850202 19.16705366 79.72789787 C19.16752943 84.86590853 19.16958722 90.00391612 19.17275429 95.14192581 C19.18155659 109.71942439 19.18617426 124.29691562 19.18542381 138.87441687 C19.18538386 139.65964837 19.1853439 140.44487986 19.18530273 141.25390625 C19.18526185 142.04009986 19.18522097 142.82629347 19.18517885 143.63631113 C19.18477237 156.37855562 19.19434354 169.12077057 19.2084411 181.86300652 C19.22281289 194.95672738 19.22971086 208.05043383 19.22884732 221.14416277 C19.22851566 228.49127681 19.2312494 235.83835985 19.24202538 243.18546677 C19.25209478 250.09489958 19.25178683 257.00426596 19.24450874 263.91370201 C19.24346271 266.44809375 19.2458269 268.98248956 19.2518692 271.51687431 C19.25958916 274.97945598 19.25494408 278.44181161 19.24723816 281.90438843 C19.25238172 282.90449932 19.25752529 283.9046102 19.26282471 284.93502748 C19.21019666 295.65453404 17.39026072 305.56156732 9.875 313.625 C0.66590428 322.29706422 -7.7708126 324.41347289 -20.01171875 324.2109375 C-30.23068451 323.67046331 -37.38389918 319.10426555 -44.25 311.6875 C-50.23092106 304.09998084 -51.5902478 296.98717154 -51.52139282 287.48246765 C-51.52904392 286.35210061 -51.53669501 285.22173358 -51.54457796 284.05711299 C-51.56514828 280.2848728 -51.5572711 276.51324656 -51.54931641 272.7409668 C-51.55583037 270.03006236 -51.56825374 267.31919165 -51.58029175 264.60830688 C-51.60573669 258.01809854 -51.60937926 251.42805336 -51.60469122 244.83780416 C-51.60111879 239.47816809 -51.60463716 234.11858137 -51.61314011 228.75895119 C-51.61433048 227.99486021 -51.61552086 227.23076923 -51.61674731 226.44352398 C-51.61917093 224.89103755 -51.6215992 223.33855113 -51.62403207 221.78606472 C-51.64576459 207.23991863 -51.64146707 192.69386535 -51.62926237 178.14771406 C-51.61892765 164.85786423 -51.64142833 151.56830776 -51.67945881 138.27851596 C-51.71825999 124.61403541 -51.73471974 110.94969348 -51.72721231 97.2851575 C-51.72339465 89.6209881 -51.72830047 81.95706826 -51.75664139 74.29294395 C-51.78052805 67.76761873 -51.78321377 61.24269666 -51.75906105 54.71736559 C-51.74732289 51.3919235 -51.74825481 48.06781826 -51.76906586 44.74233055 C-51.92737441 17.47260605 -51.92737441 17.47260605 -42.75559425 7.57894421 C-31.88363269 -3.02945834 -13.95168384 -7.74523625 0 0 Z " fill="#666666" transform="translate(556,407)"/>
</svg>
